<svg xmlns="http://www.w3.org/2000/svg" viewBox="0 0 100 125"><path d="M17 19c-2.77 0-5 2.23-5 5v42h76V24c0-2.77-2.23-5-5-5H17zm33 4c16.545 0 30 13.455 30 30 0 2.975-.439 5.84-1.25 8.562A2 2 0 0 1 76.844 63H23.156a2 2 0 0 1-1.906-1.438A29.884 29.884 0 0 1 20 53c0-16.545 13.455-30 30-30zm-2 4.062a25.95 25.95 0 0 0-14.938 6.188l1.375 1.375a1.98 1.98 0 0 1 0 2.812 1.98 1.98 0 0 1-2.812 0l-1.375-1.375A25.95 25.95 0 0 0 24.062 51H26a2 2 0 0 1 0 4h-1.875a28.02 28.02 0 0 0 .625 4h50.5c.307-1.298.505-2.637.625-4H74a2 2 0 0 1 0-4h1.937a25.95 25.95 0 0 0-6.187-14.938l-1.375 1.375a1.98 1.98 0 0 1-2.813 0 1.98 1.98 0 0 1 0-2.812l1.375-1.375A25.95 25.95 0 0 0 52 27.062V29a2 2 0 0 1-4 0v-1.938zm13.312 13.625l-7.343 10.75a4 4 0 0 1-1.125 3.407 4.037 4.037 0 0 1-5.688 0 4.037 4.037 0 0 1 0-5.688 4 4 0 0 1 3.406-1.125l10.75-7.344zM8 70v5c0 3.324 2.676 6 6 6h72c3.324 0 6-2.676 6-6v-5H58v4H42v-4H8z" overflow="visible" color="#000"/><text y="115" font-size="5" font-weight="bold" font-family="'Helvetica Neue', Helvetica, Arial-Unicode, Arial, Sans-serif">Created by Aybige Aya</text><text y="120" font-size="5" font-weight="bold" font-family="'Helvetica Neue', Helvetica, Arial-Unicode, Arial, Sans-serif">from the Noun Project</text></svg>