<svg xmlns:dc="http://purl.org/dc/elements/1.1/" xmlns:cc="http://creativecommons.org/ns#" xmlns:rdf="http://www.w3.org/1999/02/22-rdf-syntax-ns#" xmlns:svg="http://www.w3.org/2000/svg" xmlns="http://www.w3.org/2000/svg" xmlns:sodipodi="http://sodipodi.sourceforge.net/DTD/sodipodi-0.dtd" xmlns:inkscape="http://www.inkscape.org/namespaces/inkscape" version="1.1" x="0px" y="0px" viewBox="0 0 100 125"><g transform="translate(0,-952.36218)"><path style="color:#000000;enable-background:accumulate;" d="m 16.999998,971.36216 c -2.77,0 -5,2.23 -5,5 l 0,41.99994 76.000005,0 0,-41.99995 c 0,-2.77 -2.230005,-5 -5.000005,-5 l -66,0 z m 33,4 c 16.5448,0 30,13.4551 30,29.99994 0,2.9754 -0.438601,5.8401 -1.25,8.5625 a 2.0001999,2.0001999 0 0 1 -1.906201,1.4375 l -53.6876,0 a 2.0001999,2.0001999 0 0 1 -1.9062,-1.4375 c -0.8115,-2.7224 -1.25,-5.5871 -1.25,-8.5625 0,-16.54485 13.4551,-29.99995 30,-29.99995 z m -2,4.0625 c -5.6834,0.4307 -10.8662,2.69799 -14.9375,6.1875 l 1.375,1.375 c 0.781,0.78099 0.781,2.03139 0,2.8125 -0.7811,0.78099 -2.0315,0.78099 -2.8125,0 l -1.375,-1.375 c -3.4895,4.07124 -5.7568,9.25405 -6.1875,14.93744 l 1.9375,0 c 1.1045,0 2,0.8954 2,2 0,1.1045 -0.8955,2 -2,2 l -1.875,0 c 0.1198,1.3634 0.3179,2.7025 0.625,4 l 50.5,0 c 0.306899,-1.2975 0.5051,-2.6366 0.625,-4 l -1.875,0 c -1.1046,0 -2,-0.8955 -2,-2 0,-1.1046 0.8954,-2 2,-2 l 1.9375,0 c -0.4308,-5.68339 -2.698101,-10.8662 -6.1875,-14.93744 l -1.375,1.375 c -0.781101,0.78099 -2.0315,0.78099 -2.8125,0 -0.781101,-0.78111 -0.781101,-2.03151 0,-2.8125 l 1.375,-1.375 c -4.0714,-3.48951 -9.2542,-5.7568 -14.937501,-6.1875 l 0,1.9375 c 0,1.1045 -0.8955,2 -2,2 -1.104599,0 -2,-0.8955 -2,-2 l 0,-1.9375 z m 13.312499,13.62495 -7.3437,10.74999 c 0.173401,1.2051 -0.1978,2.4792 -1.125,3.4063 -1.562199,1.5621 -4.125399,1.5621 -5.6876,0 -1.5621,-1.5622 -1.5621,-4.1254 0,-5.6876 0.9273,-0.927 2.2011,-1.2984 3.4063,-1.125 l 10.75,-7.34369 z m -53.3124995,29.31259 0,5 c 0,3.324 2.6760005,6 5.9999995,6 l 72.000001,0 c 3.324005,0 6.000004,-2.676 6.000004,-6 l 0,-5 -34.000005,0 0,4 -16,0 0,-4 -33.9999995,0 z" fill="#000000" stroke="none" marker="none" visibility="visible" display="inline" overflow="visible"/></g><text x="0" y="115" fill="#000000" font-size="5px" font-weight="bold" font-family="'Helvetica Neue', Helvetica, Arial-Unicode, Arial, Sans-serif">Created by Aybige Aya</text><text x="0" y="120" fill="#000000" font-size="5px" font-weight="bold" font-family="'Helvetica Neue', Helvetica, Arial-Unicode, Arial, Sans-serif">from the Noun Project</text></svg>